<?xml version="1.0" encoding="UTF-8" standalone="no"?>
<!-- Created with Inkscape (http://www.inkscape.org/) -->

<svg
   xmlns:dc="http://purl.org/dc/elements/1.1/"
   xmlns:cc="http://creativecommons.org/ns#"
   xmlns:rdf="http://www.w3.org/1999/02/22-rdf-syntax-ns#"
   xmlns:svg="http://www.w3.org/2000/svg"
   xmlns="http://www.w3.org/2000/svg"
   version="1.1"
   width="24.893618"
   height="20"
   id="svg3510">
  <defs
     id="defs3512" />
  <metadata
     id="metadata3515">
    <rdf:RDF>
      <cc:Work
         rdf:about="">
        <dc:format>image/svg+xml</dc:format>
        <dc:type
           rdf:resource="http://purl.org/dc/dcmitype/StillImage" />
        <dc:title></dc:title>
      </cc:Work>
    </rdf:RDF>
  </metadata>
  <g
     transform="translate(-401.83887,-382.36218)"
     id="layer1">
    <g
       transform="matrix(11.820331,0,0,11.820331,-1348.696,-4572.6584)"
       id="melody_hole"
       style="font-size:6px;font-style:normal;font-variant:normal;font-weight:normal;font-stretch:normal;fill:#000000;fill-opacity:1;stroke:none;font-family:DejaVu Sans;-inkscape-font-specification:DejaVu Sans">
      <path
         d="m 149.89525,419.82474 c 0.04,-0.04 0.06,-0.092 0.06,-0.156 -1e-5,-0.064 -0.024,-0.118 -0.072,-0.162 -0.044,-0.048 -0.10001,-0.072 -0.168,-0.072 -0.10801,0 -0.33401,0.112 -0.678,0.336 -0.34401,0.224 -0.55601,0.386 -0.636,0.486 -0.04,0.04 -0.06,0.092 -0.06,0.156 0,0.064 0.022,0.118 0.066,0.162 0.048,0.048 0.10399,0.072 0.168,0.072 0.10799,0 0.33399,-0.112 0.678,-0.336 0.34799,-0.224 0.56199,-0.386 0.642,-0.486 m -0.276,-0.63 c 0.38799,0 0.58199,0.162 0.582,0.486 -10e-6,0.148 -0.038,0.314 -0.114,0.498 -0.072,0.188 -0.17801,0.33 -0.318,0.426 -0.28401,0.188 -0.65001,0.282 -1.098,0.282 -0.384,0 -0.576,-0.162 -0.576,-0.486 0,-0.148 0.036,-0.314 0.108,-0.498 0.076,-0.188 0.184,-0.33 0.324,-0.426 0.27999,-0.188 0.64399,-0.282 1.092,-0.282"
         id="path2846" />
    </g>
  </g>
</svg>
