<?xml version="1.0" encoding="UTF-8" standalone="no"?>
<!-- Created with Inkscape (http://www.inkscape.org/) -->

<svg
   xmlns:dc="http://purl.org/dc/elements/1.1/"
   xmlns:cc="http://creativecommons.org/ns#"
   xmlns:rdf="http://www.w3.org/1999/02/22-rdf-syntax-ns#"
   xmlns:svg="http://www.w3.org/2000/svg"
   xmlns="http://www.w3.org/2000/svg"
   xmlns:xlink="http://www.w3.org/1999/xlink"
   xmlns:sodipodi="http://sodipodi.sourceforge.net/DTD/sodipodi-0.dtd"
   xmlns:inkscape="http://www.inkscape.org/namespaces/inkscape"
   id="svg2"
   version="1.1"
   inkscape:version="0.48.3.1 r9886"
   width="200.53125"
   height="204"
   xml:space="preserve"
   sodipodi:docname="application.svg"
   inkscape:export-filename="/home/bobo/Projekte/LimePipes/Logo designen lassen/Lime_Pipessitre.png"
   inkscape:export-xdpi="497.0087"
   inkscape:export-ydpi="497.0087"
   style="display:inline"><metadata
     id="metadata8"><rdf:RDF><cc:Work
         rdf:about=""><dc:format>image/svg+xml</dc:format><dc:type
           rdf:resource="http://purl.org/dc/dcmitype/StillImage" /><dc:title /></cc:Work></rdf:RDF></metadata><defs
     id="defs6"><inkscape:perspective
       sodipodi:type="inkscape:persp3d"
       inkscape:vp_x="0 : 0.5 : 1"
       inkscape:vp_y="0 : 1000 : 0"
       inkscape:vp_z="1 : 0.5 : 1"
       inkscape:persp3d-origin="0.5 : 0.33333333 : 1"
       id="perspective10" /><radialGradient
       fx="0"
       fy="0"
       cx="0"
       cy="0"
       r="1"
       gradientUnits="userSpaceOnUse"
       gradientTransform="matrix(51.470489,0,0,-51.470489,288.87598,517.93018)"
       spreadMethod="pad"
       id="radialGradient46"><stop
         style="stop-opacity:1;stop-color:#d6e949"
         offset="0"
         id="stop48" /><stop
         style="stop-opacity:1;stop-color:#75c92b"
         offset="1"
         id="stop50" /></radialGradient><radialGradient
       inkscape:collect="always"
       xlink:href="#radialGradient46"
       id="radialGradient4123"
       gradientUnits="userSpaceOnUse"
       gradientTransform="matrix(64.338111,0,0,64.338111,361.09498,405.08728)"
       spreadMethod="pad"
       cx="0"
       cy="0"
       fx="0"
       fy="0"
       r="1" /></defs><sodipodi:namedview
     pagecolor="#ffffff"
     bordercolor="#666666"
     borderopacity="1"
     objecttolerance="10"
     gridtolerance="10"
     guidetolerance="10"
     inkscape:pageopacity="0"
     inkscape:pageshadow="2"
     inkscape:window-width="1920"
     inkscape:window-height="1031"
     id="namedview4"
     showgrid="false"
     inkscape:zoom="2.5368506"
     inkscape:cx="37.888462"
     inkscape:cy="117.07098"
     inkscape:window-x="0"
     inkscape:window-y="25"
     inkscape:window-maximized="1"
     inkscape:current-layer="layer2"
     fit-margin-top="0"
     fit-margin-left="0"
     fit-margin-right="0"
     fit-margin-bottom="0" /><g
     inkscape:groupmode="layer"
     id="layer2"
     inkscape:label="Hintergrund"
     style="display:inline"
     transform="translate(-275.78125,-305)"><rect
       style="fill:#505050;fill-opacity:1;stroke:#3c3c3c;stroke-width:5.54538441;stroke-linecap:round;stroke-linejoin:round;stroke-miterlimit:4;stroke-opacity:1;stroke-dasharray:none"
       id="rect3721"
       width="194.97836"
       height="198.46329"
       x="278.5553"
       y="307.77472"
       inkscape:export-xdpi="124"
       inkscape:export-ydpi="124"
       inkscape:export-filename="/home/bobo/Projekte/LimePipes/Logo designen lassen/text3712.png"
       ry="24.55242" /></g><g
     transform="matrix(1.25,0,0,-1.25,-275.78125,747.5)"
     inkscape:label="Lime"
     inkscape:groupmode="layer"
     id="g2879"
     style="display:inline"><path
       style="fill:url(#radialGradient4123);stroke:none"
       d="m 369.34375,384.6875 c -2.6625,0 -5.63125,0.60375 -7.90625,1.53125 l -0.28125,0.0937 c -1.8,0.72 -1.33625,1.81125 -1.15625,2.53125 l 1.4375,5.21875 c 2.07,7.65 4.215,15.2875 6.375,22.9375 0.09,0.27 0.54625,0.46875 0.90625,0.46875 0.27,0 0.81625,-0.19875 0.90625,-0.46875 1.44,-3.78 2.775,-7.56375 4.125,-11.34375 l 5.9375,-16 c 0.27,-0.63 0.835,-1.725 -0.875,-2.625 -1.44,-0.72 -3.2625,-1.33125 -5.0625,-1.78125 -1.08,-0.27 -2.33,-0.4725 -3.5,-0.5625 l -0.1875,0 -0.1875,0 c -0.1775,-0.006 -0.35125,0 -0.53125,0 z m -12.5,2.9375 c -0.165,0 -0.32875,0.002 -0.53125,0.0312 -2.61,0.45 -5.945,1.53625 -8.375,3.15625 l -0.1875,0.0937 -0.0937,0.0937 c -2.43,1.62 -4.77875,4.21875 -6.21875,6.46875 -0.99,1.62 0.0225,2.26875 0.5625,2.71875 6.48,5.13 12.9575,10.33875 19.4375,15.46875 l 3.40625,2.71875 c 0.27,0.18 0.73,-0.007 1,-0.1875 0.27,-0.09 0.62125,-0.5425 0.53125,-0.8125 -1.62,-5.94 -3.3175,-11.96625 -4.9375,-17.90625 -0.99,-3.42 -1.885,-6.86125 -2.875,-10.28125 -0.16125,-0.6425 -0.34125,-1.5625 -1.71875,-1.5625 z m 25.9375,1.125 c -1.24,0 -1.42875,0.905 -1.65625,1.4375 -2.43,6.57 -4.945,13.145 -7.375,19.625 l -2.78125,7.75 c -0.09,0.27 0.1675,0.695 0.4375,0.875 0.27,0.18 0.73,0.37125 1,0.28125 l 1.34375,-1 c 7.65,-5.04 15.31875,-10.0575 22.96875,-15.1875 0.54,-0.36 1.61875,-0.915 0.71875,-2.625 -1.17,-2.34 -3.34375,-5.14125 -5.59375,-7.03125 l -0.0937,-0.0625 -0.15625,-0.0937 c -2.25,-1.8 -5.51125,-3.245 -8.03125,-3.875 -0.30625,-0.07 -0.55375,-0.0937 -0.78125,-0.0937 z m -43,11.9375 c -0.40375,0 -0.8775,0.195 -1.46875,0.75 -1.89,1.89 -3.885,4.67875 -4.875,7.46875 l -0.0937,0.1875 -0.0937,0.1875 c -0.99,2.7 -1.33625,6.1125 -1.15625,8.8125 0.18,1.98 1.3425,1.785 2.0625,1.875 l 27.28125,1.1875 1.875,0.0937 c 0.27,0 0.62875,-0.44875 0.71875,-0.71875 0.09,-0.27 0.17625,-0.82 -0.0937,-1 l -2.5,-2.0625 c -6.75,-5.31 -13.59375,-10.725 -20.34375,-16.125 -0.31875,-0.265 -0.73375,-0.65625 -1.3125,-0.65625 z M 398.75,403.25 c -0.52125,0 -0.91875,0.33125 -1.21875,0.53125 L 373.75,419.4375 l -0.53125,0.4375 c -0.27,0.18 -0.2775,0.73 -0.1875,1 0.09,0.36 0.2925,0.8125 0.5625,0.8125 l 0.15625,0 c 9.72,0.45 19.37375,0.8 29.09375,1.25 0.72,0 1.79625,0.2025 2.15625,-1.6875 0.36,-2.61 0.34125,-6.11625 -0.46875,-8.90625 l 0,-0.1875 -0.0937,-0.1875 c -0.81,-2.79 -2.50875,-5.86375 -4.21875,-7.84375 -0.56125,-0.68125 -1.05,-0.875 -1.46875,-0.875 z m -65.1875,18.15625 c -0.66875,0 -1.44375,0.1625 -1.65625,1.71875 -0.45,2.61 -0.345,6.11625 0.375,8.90625 l 0.0937,0.1875 0,0.1875 c 0.81,2.79 2.59875,5.8325 4.21875,7.8125 1.35,1.53 2.15125,0.735 2.78125,0.375 L 361.4375,426 l 2.34375,-1.53125 c 0.18,-0.18 0.15625,-0.69875 0.15625,-0.96875 -0.09,-0.36 -0.44875,-0.8125 -0.71875,-0.8125 l -1.78125,-0.0937 c -9.09,-0.36 -18.285,-0.8275 -27.375,-1.1875 -0.155,0 -0.31875,0 -0.5,0 z m 40.03125,1.71875 c -0.27,0 -0.56625,0.44875 -0.65625,0.71875 -0.09,0.27 -0.17625,0.82 0.0937,1 l 0.71875,0.71875 c 7.38,5.76 14.6825,11.61875 22.0625,17.46875 0.54,0.45 1.34125,1.25625 2.78125,-0.0937 1.8,-1.89 3.795,-4.76875 4.875,-7.46875 l 0.0937,-0.1875 0,-0.1875 c 1.08,-2.7 1.33625,-6.2025 1.15625,-8.8125 -0.09,-1.98 -1.24875,-1.81625 -1.96875,-1.90625 -9.63,-0.45 -19.37,-0.8 -29,-1.25 l -0.15625,0 z m -8.84375,2.46875 c -0.0725,0 -0.115,0.0213 -0.15625,0.0625 l -3.15625,2.0625 c -7.11,4.68 -14.14,9.35125 -21.25,14.03125 -0.63,0.45 -1.61875,0.91875 -0.71875,2.71875 1.17,2.34 3.25,5.10625 5.5,6.90625 l 0.15625,0.1875 0.1875,0.0937 c 2.25,1.8 5.51125,3.245 8.03125,3.875 1.89,0.45 2.13625,-0.71375 2.40625,-1.34375 1.89,-5.04 3.7975,-10.17875 5.6875,-15.21875 l 4.5,-12.15625 c 0.18,-0.27 -0.19875,-0.72625 -0.46875,-0.90625 -0.13875,-0.13875 -0.4825,-0.3125 -0.71875,-0.3125 z m 6.96875,0.3125 c -0.225,0 -0.49,0.0763 -0.65625,0.1875 -0.18,0.18 -0.5275,0.63625 -0.4375,0.90625 1.08,3.96 2.135,7.915 3.125,11.875 1.53,5.4 3.06,10.79125 4.5,16.28125 0.27,0.63 0.36375,1.80125 2.34375,1.53125 2.61,-0.45 5.945,-1.505 8.375,-3.125 l 0.0937,-0.0937 0.1875,-0.0937 c 2.43,-1.62 4.775,-4.25 6.125,-6.5 1.08,-1.71 0.0713,-2.2375 -0.46875,-2.6875 -7.11,-5.58 -14.13625,-11.1425 -21.15625,-16.8125 L 372.0625,426 c -0.0688,-0.0688 -0.205,-0.095 -0.34375,-0.0937 z m -3.4375,1 c -0.27,0 -0.81625,0.105 -0.90625,0.375 l -5.9375,15.90625 -4.3125,11.4375 c -0.27,0.72 -0.83125,1.725 0.96875,2.625 0.99,0.54 2.08375,0.98375 3.34375,1.34375 1.71,0.54 3.50875,0.9725 5.21875,1.0625 l 0.1875,0 0.15625,0 c 2.25,0.09 4.68,-0.33875 6.75,-0.96875 0.72,-0.18 1.37,-0.355 2,-0.625 1.8,-0.72 1.33625,-1.81125 1.15625,-2.53125 l -3.15625,-11.25 c -1.44,-5.58 -3.06375,-11.23625 -4.59375,-16.90625 -0.09,-0.27 -0.515,-0.46875 -0.875,-0.46875 z"
       transform="matrix(0.8,0,0,-0.8,0,842)"
       id="path2905"
       inkscape:connector-curvature="0" /></g><g
     style="display:inline"
     id="g3924"
     inkscape:groupmode="layer"
     inkscape:label="Pipe"
     transform="matrix(1.25,0,0,-1.25,-275.78125,747.5)"><path
       style="fill:#75c92b;fill-opacity:1;fill-rule:evenodd;stroke:none"
       d="m 394.28125,315.875 c -0.81,0 -1.69375,0.007 -2.59375,0.1875 -3.33,16.02 -8.64,40.5925 -13.5,61.5625 -11.52,-2.07 -23.755,-1.07875 -25.375,1.53125 -6.03,1.62 -14.6775,7.98625 -15.9375,9.15625 -0.81,1.8 -7.0125,8.13 -6.5625,9.75 -7.2,5.04 -7.20375,21.675 -6.84375,22.125 -0.36,3.24 0.0962,7.65 0.90625,11.25 1.53,9.72 5.7425,15.225 10.0625,22.875 6.57,12.51 15.5675,24.385 21.6875,36.625 -0.27,0.18 -0.55,0.355 -1,0.625 1.08,1.71 2.3575,3.69625 3.4375,5.40625 2.43,-1.53 6.66375,-4.25125 9.09375,-5.78125 -0.99,-1.53 -2.5375,-3.96125 -3.4375,-5.3125 -0.36,0.18125 -0.515,0.28875 -0.875,0.46875 -6.21,-9 -13.86875,-17.1125 -19.71875,-26.5625 1.44,0.99 3.06375,1.90875 4.59375,2.71875 0.18,0.18 0.35125,0.3475 0.53125,0.4375 2.16,2.43 11.0675,4.6875 14.9375,4.6875 6.84,0.09 22.4875,-0.98875 29.6875,-7.46875 0.09,-0.18 0.45625,-0.2925 0.90625,-0.5625 1.17,-0.63 3.23875,-1.78125 5.21875,-4.03125 0.45,-0.45 0.83125,-0.99125 1.28125,-1.53125 2.07,-2.07 3.68875,-4.22625 5.21875,-6.65625 0.45,-0.63 0.8,-1.28 1.25,-2 l 2.875,-3.5 c 2.07,-2.51875 4.14125,-10.07 3.78125,-12.5 1.44,-6.75 0.4675,-11.44125 -1.0625,-16.03125 0.18,-0.63 -2.085,-9.43625 -2.625,-10.15625 -0.45,-2.88 -1.7975,-5.40625 -3.6875,-7.65625 5.04,-8.28 10.175,-15.4 15.125,-23.5 3.15,5.04 10.61875,3.345 9.71875,8.65625 -0.63,-0.09 -1.37,0.25375 -2,0.34375 0.36,5.4 -1.1525,7.38625 -1.0625,12.15625 3.06,2.07 9.19125,0.975 11.53125,-0.375 -0.27,-5.49 -2.88625,-8.635 -3.15625,-11.875 -0.63,-0.27 -1.43625,-0.1675 -2.15625,-0.4375 0.63,-6.57 -7.58,-4.605 -11,-11.625 l 4.6875,-7.28125 c -1.17,-2.7 -4.405,-4.7675 -7.375,-5.9375 -1.53,2.88 -1.175,2.355 -3.875,7.125 -2.07,-0.09 -3.6775,-0.54875 -4.9375,-1.71875 -0.81,-0.81 -1.55375,-1.90375 -2.09375,-3.34375 3.06,-6.84125 4.255,-8.81875 5.875,-12.6875 -1.89,-2.7 -5.31125,-4.14375 -8.28125,-4.59375 -0.63,1.53 -1.08125,2.61125 -1.53125,3.78125 -0.63,1.53 -1.27125,3.16625 -2.53125,6.40625 -1.62,-0.45 -2.88875,-1.17 -3.96875,-2.25 l -0.625,-0.625 c -1.26,-1.62 -2.15125,-3.89375 -2.78125,-6.59375 1.53,-6.21 2.50625,-9.9825 3.40625,-13.3125 0.81,-3.06 1.44,-5.58 2.25,-9 -0.54,-0.63 -1.35,-1.1775 -2.25,-1.71875 -1.44,-0.71875 -3.23875,-1.25 -5.21875,-1.25 z m 0.375,30.96875 c 0.45,1.08 1.08875,1.975 1.71875,2.875 0.9,1.08 1.955,1.9675 3.125,2.6875 0.81,0.54 1.8225,0.9175 2.8125,1.1875 -0.9,2.43 -1.9125,4.66 -2.8125,7 -1.71,4.23 -3.41875,8.48875 -5.21875,12.71875 -1.08,2.7 -2.23625,5.46375 -3.40625,8.34375 -1.35,-0.72 -2.88,-1.335 -4.5,-1.875 2.34,-9.63 4.93625,-19.8975 7.90625,-31.6875 l 0.375,-1.25 z M 408.25,361.5 c 0.45,0.72 0.995,1.36625 1.625,1.90625 1.53,1.44 3.305,2.13625 5.375,2.40625 -2.97,5.31 -6.1,10.44 -9.25,15.75 -1.62,2.79 -3.3525,5.68625 -5.0625,8.65625 -0.45,-0.45 -0.9875,-0.89375 -1.4375,-1.34375 -0.81,-0.72 -1.42875,-1.4325 -1.96875,-2.0625 -0.27,-0.36 -0.5425,-0.64 -0.8125,-1 0.9,-1.98 1.88125,-3.95375 2.78125,-5.84375 2.16,-4.59125 4.34,-9.00375 6.5,-13.59375 0.72,-1.62 1.53,-3.25625 2.25,-4.875 z m -40,19.875 c 0.69583,-0.007 1.39062,0.003 2.09375,0.0312 9.09,0.45 17.3675,3.85 23.9375,9.25 1.89,1.53 3.68875,3.265 5.21875,5.15625 2.7,3.05875 4.88,6.63 6.5,10.5 2.25,5.31 3.395,11.3525 3.125,17.5625 -0.18,4.95 -1.235,9.71125 -3.125,14.03125 -1.62,3.87 -3.8,7.38125 -6.5,10.53125 -1.62,1.89 -3.32875,3.595 -5.21875,5.125 -7.47,6.12 -17.0875,9.6375 -27.4375,9.1875 -22.5,-0.9 -39.86875,-19.965 -38.96875,-42.375 0.95906,-21.79809 18.80435,-38.77819 40.375,-39 z"
       transform="matrix(0.8,0,0,-0.8,0,842)"
       id="path3928"
       inkscape:connector-curvature="0" /></g><g
     inkscape:groupmode="layer"
     id="layer1"
     inkscape:label="Text"
     style="display:inline"
     transform="translate(-275.78125,-305)">





</g></svg>