<?xml version="1.0" encoding="UTF-8" standalone="no"?>
<!-- Created with Inkscape (http://www.inkscape.org/) -->

<svg
   xmlns:dc="http://purl.org/dc/elements/1.1/"
   xmlns:cc="http://creativecommons.org/ns#"
   xmlns:rdf="http://www.w3.org/1999/02/22-rdf-syntax-ns#"
   xmlns:svg="http://www.w3.org/2000/svg"
   xmlns="http://www.w3.org/2000/svg"
   version="1.1"
   width="23.262411"
   height="20"
   id="svg3462">
  <defs
     id="defs3464" />
  <metadata
     id="metadata3467">
    <rdf:RDF>
      <cc:Work
         rdf:about="">
        <dc:format>image/svg+xml</dc:format>
        <dc:type
           rdf:resource="http://purl.org/dc/dcmitype/StillImage" />
        <dc:title></dc:title>
      </cc:Work>
    </rdf:RDF>
  </metadata>
  <g
     transform="translate(-325.51161,-385.21936)"
     id="layer1">
    <g
       transform="matrix(11.820331,0,0,11.820331,-1343.5826,-4566.6355)"
       id="melody_fill"
       style="font-size:6px;font-style:normal;font-variant:normal;font-weight:normal;font-stretch:normal;fill:#000000;fill-opacity:1;stroke:none;font-family:DejaVu Sans;-inkscape-font-specification:DejaVu Sans">
      <path
         d="m 142.47137,418.92692 c 0.2,0 0.366,0.054 0.498,0.162 0.136,0.104 0.204,0.25 0.204,0.438 0,0.272 -0.132,0.522 -0.396,0.75 -0.264,0.228 -0.554,0.342 -0.87,0.342 -0.2,0 -0.368,-0.054 -0.504,-0.162 -0.132,-0.104 -0.198,-0.25 -0.198,-0.438 0,-0.272 0.132,-0.522 0.396,-0.75 0.264,-0.228 0.554,-0.342 0.87,-0.342"
         id="path2849" />
    </g>
  </g>
</svg>
